<svg id="visual" viewBox="0 0 900 600" width="900" height="600" xmlns="http://www.w3.org/2000/svg" xmlns:xlink="http://www.w3.org/1999/xlink" version="1.1"><rect x="0" y="0" width="900" height="600" fill="#fff8eb"></rect><path d="M0 386L25 381.8C50 377.7 100 369.3 150 385.5C200 401.7 250 442.3 300 432.2C350 422 400 361 450 336.7C500 312.3 550 324.7 600 315.8C650 307 700 277 750 282.8C800 288.7 850 330.3 875 351.2L900 372L900 601L875 601C850 601 800 601 750 601C700 601 650 601 600 601C550 601 500 601 450 601C400 601 350 601 300 601C250 601 200 601 150 601C100 601 50 601 25 601L0 601Z" fill="#d7cbb6" stroke-linecap="round" stroke-linejoin="miter"></path></svg>